PathFileType	4	(X/Y/Z)	C:/Users/opensim2020/Desktop/walking_exp_matlab/subject01_walking06_straight_01.trc	
DataRate	CameraRate	NumFrames	NumMarkers	Units	OrigDataRate	OrigDataStartFrame	OrigNumFrames	
100.00	100.00	4	43	mm	100.00	766	251	
Frame#	Time	LFHD			RFHD			LBHD			RBHD			C7			T10			CLAV			STRN			RBAK			LSHO			LUPA			LELB			LFRM			LWRA			LWRB			LFIN			RSHO			RUPA			RELB			RFRM			RWRA			RWRB			RFIN			LASI			RASI			LPSI			RPSI			LTHI			LKNE			LTIB			LANK			LHEE			LTOE			RTHI			RKNE			RTIB			RANK			RHEE			RTOE			*39			*40			*41			*42			
		X1	Y1	Z1	X2	Y2	Z2	X3	Y3	Z3	X4	Y4	Z4	X5	Y5	Z5	X6	Y6	Z6	X7	Y7	Z7	X8	Y8	Z8	X9	Y9	Z9	X10	Y10	Z10	X11	Y11	Z11	X12	Y12	Z12	X13	Y13	Z13	X14	Y14	Z14	X15	Y15	Z15	X16	Y16	Z16	X17	Y17	Z17	X18	Y18	Z18	X19	Y19	Z19	X20	Y20	Z20	X21	Y21	Z21	X22	Y22	Z22	X23	Y23	Z23	X24	Y24	Z24	X25	Y25	Z25	X26	Y26	Z26	X27	Y27	Z27	X28	Y28	Z28	X29	Y29	Z29	X30	Y30	Z30	X31	Y31	Z31	X32	Y32	Z32	X33	Y33	Z33	X34	Y34	Z34	X35	Y35	Z35	X36	Y36	Z36	X37	Y37	Z37	X38	Y38	Z38	X39	Y39	Z39	X40	Y40	Z40	X41	Y41	Z41	X42	Y42	Z42	X43	Y43	Z43	

1	0.000	1283.45215	-1364.90869	1651.30066	1398.55396	-1356.87585	1661.69067	1287.13574	-1481.34265	1606.70886	1407.51892	-1477.04199	1616.29773	1308.01282	-1524.83484	1421.36047	1314.55640	-1567.31750	1126.81995	1355.95007	-1390.27295	1351.73889	1369.76929	-1351.58032	1198.28711	1369.87720	-1607.16931	1230.83801	1183.45667	-1399.13062	1377.35645	1105.60168	-1379.51599	1190.39014	1116.01782	-1361.74023	1038.45959	1134.15283	-1290.10022	946.52283	1211.07056	-1202.07336	866.60388	1166.55554	-1235.14832	840.84607	1198.08484	-1174.41064	790.13837	1478.09082	-1497.77649	1388.66687	1557.55701	-1605.50842	1201.16907	1564.04700	-1617.67578	1076.69788	1603.01599	-1614.07727	958.89368	1608.23181	-1547.55469	834.08264	1632.94946	-1600.14099	840.41156	1644.23901	-1571.08496	760.45038	1271.06006	-1370.67139	916.28809	1478.01135	-1430.58167	931.70990	1271.45007	-1566.14758	931.75000	1413.79321	-1602.08398	937.16718	1247.19836	-1410.48792	578.38507	1272.30872	-1436.88867	446.22192	1270.06067	-1501.01501	265.53577	1336.08423	-1558.89917	59.77031	1378.64722	-1617.43958	34.06168	1368.54382	-1417.01147	26.08609	1572.25513	-1408.65161	617.76062	1572.98682	-1364.12256	465.23373	1562.38721	-1478.46729	329.51242	1506.88574	-1572.75183	149.38992	1442.23047	-1616.30603	128.18321	1546.80493	-1475.84058	53.38095	1373.64709	-1368.10193	1694.47437	-3102.02051	1973.03955	1023.44049	-3140.63916	2012.49927	1021.85339			 
2	0.010	1286.70447	-1358.26453	1651.70007	1401.79053	-1349.83118	1661.92822	1290.86707	-1474.49854	1606.36780	1411.32214	-1469.61438	1615.66626	1311.98853	-1517.16260	1421.41406	1318.40955	-1560.27429	1127.10876	1358.48523	-1382.21082	1351.52100	1371.48767	-1343.77014	1197.93433	1374.22998	-1599.18811	1231.00757	1186.26733	-1392.63391	1377.86328	1107.99243	-1372.62573	1191.20959	1117.97803	-1353.75806	1039.59644	1136.37402	-1280.78357	948.45569	1213.70618	-1191.57104	870.01953	1169.25452	-1224.28137	843.66522	1200.95215	-1162.97205	794.24762	1481.64697	-1488.54102	1388.48328	1561.56494	-1596.41541	1201.20471	1567.94153	-1609.17444	1076.81482	1606.75818	-1605.68933	959.02570	1611.61682	-1539.45032	833.96710	1636.45642	-1591.92859	840.47614	1647.53101	-1563.14563	760.22040	1271.95471	-1365.78467	915.20502	1480.25903	-1421.97815	932.05164	1275.21094	-1559.79065	931.49780	1417.85938	-1594.25110	937.31970	1248.27832	-1407.98071	578.14667	1273.00037	-1435.36768	446.10583	1270.58557	-1500.21790	265.88080	1336.27686	-1558.78235	59.99923	1379.11890	-1616.56470	33.86899	1368.54944	-1416.48572	26.18161	1574.37280	-1397.68311	618.79810	1574.87610	-1351.08618	466.91956	1568.76599	-1459.78052	326.37756	1517.53577	-1545.98962	140.52881	1453.89832	-1590.36121	116.53263	1557.12634	-1444.66418	51.21345	1376.84753	-1361.29883	1694.72388	-3101.96460	1973.08362	1023.60797	-3140.56909	2012.52429	1022.01703			 
3	0.020	1290.03101	-1351.69678	1652.06238	1404.98865	-1342.70801	1662.15393	1294.65723	-1467.56042	1605.93823	1415.19617	-1462.27905	1615.11133	1315.96021	-1509.56580	1421.50647	1322.22888	-1553.65637	1127.78491	1361.09595	-1374.23315	1351.32861	1372.74097	-1336.84595	1197.37439	1378.57654	-1591.16748	1231.19287	1189.11047	-1386.09558	1378.29016	1110.45630	-1365.50342	1192.09668	1119.70886	-1345.32385	1040.09131	1138.57837	-1271.39514	950.40485	1216.36682	-1181.26050	873.38403	1171.94543	-1213.47302	846.47003	1203.87964	-1151.11841	797.94342	1485.31030	-1479.21326	1388.10474	1565.68408	-1587.20410	1201.25244	1571.87610	-1600.53882	1076.90747	1610.46729	-1597.11133	959.03192	1614.91711	-1531.13940	833.84039	1639.86353	-1583.56250	840.24493	1650.74609	-1555.01636	760.02954	1273.84619	-1359.01013	915.27161	1482.40942	-1413.36060	932.32831	1278.88831	-1553.64758	931.45270	1421.89587	-1586.45654	937.70404	1249.36145	-1405.28162	577.91498	1273.53455	-1433.70874	445.93582	1271.10681	-1499.50000	266.27896	1336.48962	-1558.65857	60.32394	1379.37219	-1616.51062	34.62194	1368.49292	-1416.38879	25.97175	1575.99561	-1387.28979	619.55591	1576.53015	-1338.60193	468.47400	1574.60327	-1440.79541	322.70511	1527.76953	-1519.10071	132.25046	1465.31335	-1563.12231	104.43986	1566.45496	-1412.77332	48.76060	1380.30005	-1354.56628	1694.87378	-3102.05469	1973.08521	1023.71912	-3140.69873	2012.39880	1021.83691			 
4	0.030	1293.49097	-1344.97473	1652.35425	1408.41699	-1335.66919	1662.26453	1298.48865	-1460.60034	1605.43933	1419.05115	-1454.82715	1614.44287	1320.01135	-1501.90845	1421.65674	1326.12439	-1546.41284	1128.05212	1363.58264	-1366.20752	1351.08008	1375.04688	-1328.05408	1197.13171	1382.98450	-1583.13232	1231.32886	1191.93945	-1379.54578	1378.74963	1112.91431	-1358.29150	1192.96875	1121.85486	-1337.36804	1041.49500	1140.91150	-1261.84534	952.32135	1219.11658	-1171.17285	876.66547	1174.51917	-1202.80237	849.25885	1206.57678	-1139.73950	801.88110	1488.98022	-1469.93701	1387.82141	1569.83044	-1577.79993	1201.22009	1575.81873	-1591.81653	1076.94971	1614.26428	-1588.39990	958.91980	1618.17505	-1522.67578	833.62561	1643.33936	-1574.94397	840.05499	1653.98291	-1546.62244	759.78149	1274.97986	-1353.52600	914.31726	1484.77893	-1404.81665	932.39337	1282.54370	-1547.40479	931.59589	1425.80762	-1578.49036	937.87695	1250.31750	-1402.62402	577.77423	1274.09180	-1432.18640	446.08112	1271.53040	-1498.80798	266.81293	1336.70959	-1558.36755	60.67543	1379.67883	-1616.13892	35.15422	1368.57446	-1416.13074	25.90873	1577.95129	-1377.50330	619.99323	1578.48535	-1326.79492	469.70798	1580.47595	-1422.15063	319.46021	1537.12390	-1493.12292	124.38318	1476.30823	-1535.33777	93.72031	1575.21814	-1380.10681	47.30646	1383.75037	-1347.92224	1694.88916	-3101.91309	1973.07764	1023.43872	-3140.73730	2012.47058	1022.03851			 
